<svg xmlns="http://www.w3.org/2000/svg" width="169.282" height="44.909" viewBox="0 0 169.282 44.909">
  <g id="TDi-Digital_logo" transform="translate(-22.518 -18.17)">
    <g id="Group_38" data-name="Group 38" transform="translate(23 18.6)">
      <g id="Group_21" data-name="Group 21" transform="translate(0.518 0.57)">
        <g id="Group_20" data-name="Group 20">
          <path id="Path_10" data-name="Path 10" d="M32.343,19.7A8.219,8.219,0,0,0,24,27.784v26.74a8.219,8.219,0,0,0,8.343,8.084h150.6a8.219,8.219,0,0,0,8.343-8.084V27.784a8.219,8.219,0,0,0-8.343-8.084H32.343" transform="translate(-24 -19.7)" fill="#fff"/>
        </g>
      </g>
      <g id="Group_23" data-name="Group 23" transform="translate(0.518 0.57)">
        <g id="Group_22" data-name="Group 22">
          <path id="Path_11" data-name="Path 11" d="M32.343,19.7A8.219,8.219,0,0,0,24,27.784v26.74a8.219,8.219,0,0,0,8.343,8.084h150.6a8.219,8.219,0,0,0,8.343-8.084V27.784a8.219,8.219,0,0,0-8.343-8.084H32.343" transform="translate(-24 -19.7)" fill="none" stroke="#d9d9d9" stroke-width="2"/>
        </g>
      </g>
      <g id="Group_25" data-name="Group 25">
        <g id="Group_24" data-name="Group 24">
          <path id="Path_12" data-name="Path 12" d="M30.929,18.6A7.929,7.929,0,0,0,23,26.529V54.616a7.929,7.929,0,0,0,7.929,7.929H71.091a7.929,7.929,0,0,0,7.929-7.929V26.529A7.929,7.929,0,0,0,71.091,18.6Z" transform="translate(-23 -18.6)" fill="#F7E44C"/>
        </g>
      </g>
      <g id="Group_27" data-name="Group 27" transform="translate(12.23 14.666)">
        <g id="Group_26" data-name="Group 26">
          <path id="Path_13" data-name="Path 13" d="M57.9,50.009H47.377a.8.8,0,0,1-.777-.777V47.677a.8.8,0,0,1,.777-.777H57.949a.8.8,0,0,1,.777.777v1.555a.885.885,0,0,1-.829.777" transform="translate(-46.6 -46.9)"/>
        </g>
      </g>
      <g id="Group_29" data-name="Group 29" transform="translate(16.531 18.449)">
        <g id="Group_28" data-name="Group 28">
          <path id="Path_14" data-name="Path 14" d="M54.9,64.253V54.977a.8.8,0,0,1,.777-.777h1.762a.8.8,0,0,1,.777.777v9.276a.8.8,0,0,1-.777.777H55.677a.8.8,0,0,1-.777-.777" transform="translate(-54.9 -54.2)"/>
        </g>
      </g>
      <g id="Group_31" data-name="Group 31" transform="translate(25.496 14.614)">
        <g id="Group_30" data-name="Group 30">
          <path id="Path_15" data-name="Path 15" d="M72.2,60.688V47.577a.8.8,0,0,1,.777-.777h1.762a.8.8,0,0,1,.777.777V60.637a.8.8,0,0,1-.777.777H72.977a.721.721,0,0,1-.777-.726" transform="translate(-72.2 -46.8)"/>
        </g>
      </g>
      <g id="Group_33" data-name="Group 33" transform="translate(40.577 14.666)">
        <g id="Group_32" data-name="Group 32">
          <path id="Path_16" data-name="Path 16" d="M101.3,49.232V47.677a.8.8,0,0,1,.777-.777h1.762a.8.8,0,0,1,.777.777v1.555a.8.8,0,0,1-.777.777h-1.762a.763.763,0,0,1-.777-.777" transform="translate(-101.3 -46.9)"/>
        </g>
      </g>
      <g id="Group_35" data-name="Group 35" transform="translate(40.577 18.449)">
        <g id="Group_34" data-name="Group 34">
          <path id="Path_17" data-name="Path 17" d="M101.3,64.253V54.977a.8.8,0,0,1,.777-.777h1.762a.8.8,0,0,1,.777.777v9.276a.8.8,0,0,1-.777.777h-1.762a.763.763,0,0,1-.777-.777" transform="translate(-101.3 -54.2)"/>
        </g>
      </g>
      <g id="Group_37" data-name="Group 37" transform="translate(29.694 14.666)">
        <g id="Group_36" data-name="Group 36">
          <path id="Path_18" data-name="Path 18" d="M89.835,54.207a7.482,7.482,0,0,0-7.67-7.307H81.077a.8.8,0,0,0-.777.777v1.451a.8.8,0,0,0,.777.777h1.451a4.37,4.37,0,0,1,0,8.706H81.077a.8.8,0,0,0-.777.777V60.84a.8.8,0,0,0,.777.777h1.088a7.671,7.671,0,0,0,7.67-7.411" transform="translate(-80.3 -46.9)"/>
        </g>
      </g>
    </g>
    <g id="Group_39" data-name="Group 39" transform="translate(87.778 36.271)">
      <path id="Path_19" data-name="Path 19" d="M151.42,61.606H148V52.9h3.42a4.319,4.319,0,0,1,4.612,4.353h0A4.348,4.348,0,0,1,151.42,61.606Zm2.591-4.353a2.5,2.5,0,0,0-2.643-2.643h-1.5v5.234h1.5a2.411,2.411,0,0,0,2.643-2.591Z" transform="translate(-148 -52.796)"/>
      <path id="Path_20" data-name="Path 20" d="M167,61.606V52.9h1.917v8.706Z" transform="translate(-157.154 -52.796)"/>
      <path id="Path_21" data-name="Path 21" d="M178.66,61.665a4.356,4.356,0,0,1-4.56-4.457h0a4.459,4.459,0,0,1,4.56-4.509,4.814,4.814,0,0,1,3.42,1.192l-1.192,1.451a3.126,3.126,0,0,0-2.28-.881,2.6,2.6,0,0,0-2.487,2.695h0a2.586,2.586,0,0,0,2.643,2.747,3.1,3.1,0,0,0,1.814-.518V58.141H178.66V56.483h3.783v3.783A5.789,5.789,0,0,1,178.66,61.665Z" transform="translate(-160.574 -52.7)"/>
      <path id="Path_22" data-name="Path 22" d="M193.8,61.606V52.9h1.917v8.706Z" transform="translate(-170.065 -52.796)"/>
    </g>
    <g id="Group_40" data-name="Group 40" transform="translate(114.984 36.375)">
      <path id="Path_23" data-name="Path 23" d="M205.06,54.662v6.944h-1.917V54.662H200.5V52.9h7.2v1.762Z" transform="translate(-200.5 -52.9)"/>
    </g>
    <g id="Group_41" data-name="Group 41" transform="translate(121.825 36.323)">
      <path id="Path_24" data-name="Path 24" d="M220.9,61.558l-.777-1.969h-3.679l-.777,1.969H213.7l3.731-8.758h1.762l3.731,8.758ZM218.26,55.08l-1.14,2.8h2.332Z" transform="translate(-213.7 -52.8)"/>
      <path id="Path_25" data-name="Path 25" d="M234.1,61.606V52.9h1.917v6.944h4.353v1.762Z" transform="translate(-223.528 -52.848)"/>
    </g>
  </g>
</svg>
